<svg xmlns="http://www.w3.org/2000/svg" viewBox="0 0 32 32">
  <path d="M16 2C16 2 11 7 8 12C5 17 6.5 23.5 11 27C12.5 28.2 14.2 28.8 16 28.8C17.8 28.8 19.5 28.2 21 27C25.5 23.5 27 17 24 12C21 7 16 2 16 2Z" fill="#C4841D" opacity="0.2"/>
  <path d="M16 2C16 2 11 7 8 12C5 17 6.5 23.5 11 27C12.5 28.2 14.2 28.8 16 28.8C17.8 28.8 19.5 28.2 21 27C25.5 23.5 27 17 24 12C21 7 16 2 16 2Z" fill="none" stroke="#C4841D" stroke-width="1.2"/>
  <path d="M16 8V26M12 13L16 16M20 13L16 16M10 18L16 21M22 18L16 21" stroke="#C4841D" stroke-width="0.8" opacity="0.6"/>
</svg>
